<mxfile host="app.diagrams.net" modified="2025-01-03T05:29:41.091Z" agent="Mozilla/5.0 (Windows NT 10.0; Win64; x64) AppleWebKit/537.36 (KHTML, like Gecko) Chrome/131.0.0.0 Safari/537.36" etag="z_VjDM9fL8KESskKRNJF" version="24.6.3" type="onedrive">
  <diagram name="Page-1" id="ZVBOZOPymjg8OdqwbYo4">
    <mxGraphModel grid="1" page="1" gridSize="10" guides="1" tooltips="1" connect="1" arrows="1" fold="1" pageScale="1" pageWidth="1100" pageHeight="850" math="0" shadow="0">
      <root>
        <mxCell id="0" />
        <mxCell id="1" parent="0" />
        <mxCell id="JBOzCxyKF4kcGiybDYba-2" value="&lt;font style=&quot;&quot;&gt;&lt;font style=&quot;font-size: 16px;&quot;&gt;VehicleTelemetry &lt;/font&gt;&lt;br&gt;&lt;span style=&quot;font-size: 12px; font-weight: normal;&quot;&gt;key: &quot;{vehicleName}-tel&quot;&lt;/span&gt;&lt;/font&gt;" style="swimlane;fontStyle=1;childLayout=stackLayout;horizontal=1;startSize=60;horizontalStack=0;resizeParent=1;resizeParentMax=0;resizeLast=0;collapsible=1;marginBottom=0;whiteSpace=wrap;html=1;fontFamily=Sen;fontSource=https%3A%2F%2Ffonts.googleapis.com%2Fcss%3Ffamily%3DSen;fontSize=16;strokeWidth=2;fillColor=#dae8fc;strokeColor=#6c8ebf;" vertex="1" parent="1">
          <mxGeometry x="-1020" y="290" width="210" height="390" as="geometry" />
        </mxCell>
        <mxCell id="JBOzCxyKF4kcGiybDYba-22" value="+ localIp?: string" style="text;strokeColor=none;fillColor=none;align=left;verticalAlign=middle;spacingLeft=4;spacingRight=4;overflow=hidden;points=[[0,0.5],[1,0.5]];portConstraint=eastwest;rotatable=0;whiteSpace=wrap;html=1;fontFamily=Sen;fontSource=https%3A%2F%2Ffonts.googleapis.com%2Fcss%3Ffamily%3DSen;" vertex="1" parent="JBOzCxyKF4kcGiybDYba-2">
          <mxGeometry y="60" width="210" height="30" as="geometry" />
        </mxCell>
        <mxCell id="JBOzCxyKF4kcGiybDYba-3" value="+ speed: float" style="text;strokeColor=none;fillColor=none;align=left;verticalAlign=middle;spacingLeft=4;spacingRight=4;overflow=hidden;points=[[0,0.5],[1,0.5]];portConstraint=eastwest;rotatable=0;whiteSpace=wrap;html=1;fontFamily=Sen;fontSource=https%3A%2F%2Ffonts.googleapis.com%2Fcss%3Ffamily%3DSen;" vertex="1" parent="JBOzCxyKF4kcGiybDYba-2">
          <mxGeometry y="90" width="210" height="30" as="geometry" />
        </mxCell>
        <mxCell id="JBOzCxyKF4kcGiybDYba-4" value="+ pitch: float" style="text;strokeColor=none;fillColor=none;align=left;verticalAlign=middle;spacingLeft=4;spacingRight=4;overflow=hidden;points=[[0,0.5],[1,0.5]];portConstraint=eastwest;rotatable=0;whiteSpace=wrap;html=1;fontFamily=Sen;fontSource=https%3A%2F%2Ffonts.googleapis.com%2Fcss%3Ffamily%3DSen;" vertex="1" parent="JBOzCxyKF4kcGiybDYba-2">
          <mxGeometry y="120" width="210" height="30" as="geometry" />
        </mxCell>
        <mxCell id="JBOzCxyKF4kcGiybDYba-5" value="+ yaw: float" style="text;strokeColor=none;fillColor=none;align=left;verticalAlign=middle;spacingLeft=4;spacingRight=4;overflow=hidden;points=[[0,0.5],[1,0.5]];portConstraint=eastwest;rotatable=0;whiteSpace=wrap;html=1;fontFamily=Sen;fontSource=https%3A%2F%2Ffonts.googleapis.com%2Fcss%3Ffamily%3DSen;" vertex="1" parent="JBOzCxyKF4kcGiybDYba-2">
          <mxGeometry y="150" width="210" height="30" as="geometry" />
        </mxCell>
        <mxCell id="JBOzCxyKF4kcGiybDYba-9" value="+ roll: float" style="text;strokeColor=none;fillColor=none;align=left;verticalAlign=middle;spacingLeft=4;spacingRight=4;overflow=hidden;points=[[0,0.5],[1,0.5]];portConstraint=eastwest;rotatable=0;whiteSpace=wrap;html=1;fontFamily=Sen;fontSource=https%3A%2F%2Ffonts.googleapis.com%2Fcss%3Ffamily%3DSen;" vertex="1" parent="JBOzCxyKF4kcGiybDYba-2">
          <mxGeometry y="180" width="210" height="30" as="geometry" />
        </mxCell>
        <mxCell id="JBOzCxyKF4kcGiybDYba-8" value="+ altitude: float" style="text;strokeColor=none;fillColor=none;align=left;verticalAlign=middle;spacingLeft=4;spacingRight=4;overflow=hidden;points=[[0,0.5],[1,0.5]];portConstraint=eastwest;rotatable=0;whiteSpace=wrap;html=1;fontFamily=Sen;fontSource=https%3A%2F%2Ffonts.googleapis.com%2Fcss%3Ffamily%3DSen;" vertex="1" parent="JBOzCxyKF4kcGiybDYba-2">
          <mxGeometry y="210" width="210" height="30" as="geometry" />
        </mxCell>
        <mxCell id="JBOzCxyKF4kcGiybDYba-7" value="+ batteryLife: float" style="text;strokeColor=none;fillColor=none;align=left;verticalAlign=middle;spacingLeft=4;spacingRight=4;overflow=hidden;points=[[0,0.5],[1,0.5]];portConstraint=eastwest;rotatable=0;whiteSpace=wrap;html=1;fontFamily=Sen;fontSource=https%3A%2F%2Ffonts.googleapis.com%2Fcss%3Ffamily%3DSen;" vertex="1" parent="JBOzCxyKF4kcGiybDYba-2">
          <mxGeometry y="240" width="210" height="30" as="geometry" />
        </mxCell>
        <mxCell id="JBOzCxyKF4kcGiybDYba-6" value="+ lastUpdated: DateTime" style="text;strokeColor=none;fillColor=none;align=left;verticalAlign=middle;spacingLeft=4;spacingRight=4;overflow=hidden;points=[[0,0.5],[1,0.5]];portConstraint=eastwest;rotatable=0;whiteSpace=wrap;html=1;fontFamily=Sen;fontSource=https%3A%2F%2Ffonts.googleapis.com%2Fcss%3Ffamily%3DSen;" vertex="1" parent="JBOzCxyKF4kcGiybDYba-2">
          <mxGeometry y="270" width="210" height="30" as="geometry" />
        </mxCell>
        <mxCell id="JBOzCxyKF4kcGiybDYba-42" value="+ currentPosition: Coordinate" style="text;strokeColor=none;fillColor=none;align=left;verticalAlign=middle;spacingLeft=4;spacingRight=4;overflow=hidden;points=[[0,0.5],[1,0.5]];portConstraint=eastwest;rotatable=0;whiteSpace=wrap;html=1;fontFamily=Sen;fontSource=https%3A%2F%2Ffonts.googleapis.com%2Fcss%3Ffamily%3DSen;" vertex="1" parent="JBOzCxyKF4kcGiybDYba-2">
          <mxGeometry y="300" width="210" height="30" as="geometry" />
        </mxCell>
        <mxCell id="o4jwhLANQ3BsJ6v3ssTc-2" value="+ vehicleStatus?: Status_Enum" style="text;strokeColor=none;fillColor=none;align=left;verticalAlign=middle;spacingLeft=4;spacingRight=4;overflow=hidden;points=[[0,0.5],[1,0.5]];portConstraint=eastwest;rotatable=0;whiteSpace=wrap;html=1;fontFamily=Sen;fontSource=https%3A%2F%2Ffonts.googleapis.com%2Fcss%3Ffamily%3DSen;" vertex="1" parent="JBOzCxyKF4kcGiybDYba-2">
          <mxGeometry y="330" width="210" height="30" as="geometry" />
        </mxCell>
        <mxCell id="--DR1wKfRveWgKbTQpy6-1" value="+ patientLocation?: Coordinate" style="text;strokeColor=none;fillColor=none;align=left;verticalAlign=middle;spacingLeft=4;spacingRight=4;overflow=hidden;points=[[0,0.5],[1,0.5]];portConstraint=eastwest;rotatable=0;whiteSpace=wrap;html=1;fontFamily=Sen;fontSource=https%3A%2F%2Ffonts.googleapis.com%2Fcss%3Ffamily%3DSen;" vertex="1" parent="JBOzCxyKF4kcGiybDYba-2">
          <mxGeometry y="360" width="210" height="30" as="geometry" />
        </mxCell>
        <mxCell id="tJRRS9a5sce-Qi3CrdKS-4" style="edgeStyle=orthogonalEdgeStyle;rounded=0;orthogonalLoop=1;jettySize=auto;html=1;entryX=1.006;entryY=0.111;entryDx=0;entryDy=0;exitX=0;exitY=0.5;exitDx=0;exitDy=0;strokeWidth=2;entryPerimeter=0;" edge="1" parent="1" source="JBOzCxyKF4kcGiybDYba-23" target="JBOzCxyKF4kcGiybDYba-11">
          <mxGeometry relative="1" as="geometry">
            <Array as="points">
              <mxPoint x="-320" y="695" />
              <mxPoint x="-320" y="161" />
            </Array>
          </mxGeometry>
        </mxCell>
        <mxCell id="JBOzCxyKF4kcGiybDYba-21" value="&lt;font style=&quot;&quot;&gt;&lt;font style=&quot;font-size: 16px;&quot;&gt;VehicleGeoData&lt;/font&gt;&lt;br&gt;&lt;/font&gt;" style="swimlane;fontStyle=1;childLayout=stackLayout;horizontal=1;startSize=60;horizontalStack=0;resizeParent=1;resizeParentMax=0;resizeLast=0;collapsible=1;marginBottom=0;whiteSpace=wrap;html=1;fontFamily=Sen;fontSource=https%3A%2F%2Ffonts.googleapis.com%2Fcss%3Ffamily%3DSen;fontSize=16;strokeWidth=2;fillColor=#e1d5e7;strokeColor=#9673a6;" vertex="1" parent="1">
          <mxGeometry x="-210" y="620" width="180" height="120" as="geometry" />
        </mxCell>
        <mxCell id="JBOzCxyKF4kcGiybDYba-23" value="+ target: Coordinate" style="text;strokeColor=none;fillColor=none;align=left;verticalAlign=middle;spacingLeft=4;spacingRight=4;overflow=hidden;points=[[0,0.5],[1,0.5]];portConstraint=eastwest;rotatable=0;whiteSpace=wrap;html=1;fontFamily=Sen;fontSource=https%3A%2F%2Ffonts.googleapis.com%2Fcss%3Ffamily%3DSen;" vertex="1" parent="JBOzCxyKF4kcGiybDYba-21">
          <mxGeometry y="60" width="180" height="30" as="geometry" />
        </mxCell>
        <mxCell id="JBOzCxyKF4kcGiybDYba-24" value="+ searchArea: Coordinate[]" style="text;strokeColor=none;fillColor=none;align=left;verticalAlign=middle;spacingLeft=4;spacingRight=4;overflow=hidden;points=[[0,0.5],[1,0.5]];portConstraint=eastwest;rotatable=0;whiteSpace=wrap;html=1;fontFamily=Sen;fontSource=https%3A%2F%2Ffonts.googleapis.com%2Fcss%3Ffamily%3DSen;" vertex="1" parent="JBOzCxyKF4kcGiybDYba-21">
          <mxGeometry y="90" width="180" height="30" as="geometry" />
        </mxCell>
        <mxCell id="7jIuEses9-9phUZ3NibQ-2" value="&lt;font style=&quot;&quot;&gt;&lt;font style=&quot;font-size: 16px;&quot;&gt;Zones&lt;/font&gt;&lt;br&gt;&lt;span style=&quot;font-size: 12px; font-weight: normal;&quot;&gt;key: &quot;zones&quot;&lt;/span&gt;&lt;/font&gt;" style="swimlane;fontStyle=1;childLayout=stackLayout;horizontal=1;startSize=60;horizontalStack=0;resizeParent=1;resizeParentMax=0;resizeLast=0;collapsible=1;marginBottom=0;whiteSpace=wrap;html=1;fontFamily=Sen;fontSource=https%3A%2F%2Ffonts.googleapis.com%2Fcss%3Ffamily%3DSen;fontSize=16;strokeWidth=2;fillColor=#e1d5e7;strokeColor=#9673a6;" vertex="1" parent="1">
          <mxGeometry x="-670" y="270" width="180" height="90" as="geometry" />
        </mxCell>
        <mxCell id="7jIuEses9-9phUZ3NibQ-3" value="+ zones: Geofence[]" style="text;strokeColor=none;fillColor=none;align=left;verticalAlign=middle;spacingLeft=4;spacingRight=4;overflow=hidden;points=[[0,0.5],[1,0.5]];portConstraint=eastwest;rotatable=0;whiteSpace=wrap;html=1;fontFamily=Sen;fontSource=https%3A%2F%2Ffonts.googleapis.com%2Fcss%3Ffamily%3DSen;" vertex="1" parent="7jIuEses9-9phUZ3NibQ-2">
          <mxGeometry y="60" width="180" height="30" as="geometry" />
        </mxCell>
        <mxCell id="tJRRS9a5sce-Qi3CrdKS-2" style="edgeStyle=orthogonalEdgeStyle;rounded=0;orthogonalLoop=1;jettySize=auto;html=1;entryX=1;entryY=0.25;entryDx=0;entryDy=0;strokeWidth=2;" edge="1" parent="1" source="7jIuEses9-9phUZ3NibQ-4" target="JBOzCxyKF4kcGiybDYba-11">
          <mxGeometry relative="1" as="geometry">
            <Array as="points">
              <mxPoint x="-340" y="515" />
              <mxPoint x="-340" y="175" />
            </Array>
          </mxGeometry>
        </mxCell>
        <mxCell id="7jIuEses9-9phUZ3NibQ-4" value="&lt;font style=&quot;&quot;&gt;&lt;font style=&quot;font-size: 16px;&quot;&gt;Geofence&lt;/font&gt;&lt;br&gt;&lt;/font&gt;" style="swimlane;fontStyle=1;childLayout=stackLayout;horizontal=1;startSize=40;horizontalStack=0;resizeParent=1;resizeParentMax=0;resizeLast=0;collapsible=1;marginBottom=0;whiteSpace=wrap;html=1;fontFamily=Sen;fontSource=https%3A%2F%2Ffonts.googleapis.com%2Fcss%3Ffamily%3DSen;fontSize=16;strokeWidth=2;fillColor=#f5f5f5;fontColor=#333333;strokeColor=#666666;" vertex="1" parent="1">
          <mxGeometry x="-655" y="460" width="150" height="110" as="geometry" />
        </mxCell>
        <mxCell id="7jIuEses9-9phUZ3NibQ-6" value="+ shape: Coordinate[]" style="text;strokeColor=none;fillColor=none;align=left;verticalAlign=middle;spacingLeft=4;spacingRight=4;overflow=hidden;points=[[0,0.5],[1,0.5]];portConstraint=eastwest;rotatable=0;whiteSpace=wrap;html=1;fontFamily=Sen;fontSource=https%3A%2F%2Ffonts.googleapis.com%2Fcss%3Ffamily%3DSen;" vertex="1" parent="7jIuEses9-9phUZ3NibQ-4">
          <mxGeometry y="40" width="150" height="40" as="geometry" />
        </mxCell>
        <mxCell id="7jIuEses9-9phUZ3NibQ-5" value="+ isKeepIn: bool" style="text;strokeColor=none;fillColor=none;align=left;verticalAlign=middle;spacingLeft=4;spacingRight=4;overflow=hidden;points=[[0,0.5],[1,0.5]];portConstraint=eastwest;rotatable=0;whiteSpace=wrap;html=1;fontFamily=Sen;fontSource=https%3A%2F%2Ffonts.googleapis.com%2Fcss%3Ffamily%3DSen;" vertex="1" parent="7jIuEses9-9phUZ3NibQ-4">
          <mxGeometry y="80" width="150" height="30" as="geometry" />
        </mxCell>
        <mxCell id="UAhzRjT6HhTKyUCTO6og-1" value="" style="edgeStyle=orthogonalEdgeStyle;rounded=0;orthogonalLoop=1;jettySize=auto;html=1;strokeWidth=2;fillColor=#dae8fc;strokeColor=#6c8ebf;exitX=0;exitY=0.5;exitDx=0;exitDy=0;" edge="1" parent="1" source="JBOzCxyKF4kcGiybDYba-42" target="JBOzCxyKF4kcGiybDYba-11">
          <mxGeometry relative="1" as="geometry">
            <mxPoint x="-590" y="130" as="targetPoint" />
            <Array as="points">
              <mxPoint x="-1040" y="605" />
              <mxPoint x="-1040" y="180" />
              <mxPoint x="-460" y="180" />
            </Array>
            <mxPoint x="-810" y="585" as="sourcePoint" />
          </mxGeometry>
        </mxCell>
        <mxCell id="JBOzCxyKF4kcGiybDYba-11" value="&lt;font style=&quot;&quot;&gt;&lt;font style=&quot;font-size: 16px;&quot;&gt;Coordinate&lt;/font&gt;&lt;br&gt;&lt;/font&gt;" style="swimlane;fontStyle=1;childLayout=stackLayout;horizontal=1;startSize=40;horizontalStack=0;resizeParent=1;resizeParentMax=0;resizeLast=0;collapsible=1;marginBottom=0;whiteSpace=wrap;html=1;fontFamily=Sen;fontSource=https%3A%2F%2Ffonts.googleapis.com%2Fcss%3Ffamily%3DSen;fontSize=16;strokeWidth=2;fillColor=#f5f5f5;fontColor=#333333;strokeColor=#666666;" vertex="1" parent="1">
          <mxGeometry x="-480" y="150" width="120" height="100" as="geometry" />
        </mxCell>
        <mxCell id="JBOzCxyKF4kcGiybDYba-12" value="+ latitude: float" style="text;strokeColor=none;fillColor=none;align=left;verticalAlign=middle;spacingLeft=4;spacingRight=4;overflow=hidden;points=[[0,0.5],[1,0.5]];portConstraint=eastwest;rotatable=0;whiteSpace=wrap;html=1;fontFamily=Sen;fontSource=https%3A%2F%2Ffonts.googleapis.com%2Fcss%3Ffamily%3DSen;" vertex="1" parent="JBOzCxyKF4kcGiybDYba-11">
          <mxGeometry y="40" width="120" height="30" as="geometry" />
        </mxCell>
        <mxCell id="JBOzCxyKF4kcGiybDYba-13" value="+ longitude: float" style="text;strokeColor=none;fillColor=none;align=left;verticalAlign=middle;spacingLeft=4;spacingRight=4;overflow=hidden;points=[[0,0.5],[1,0.5]];portConstraint=eastwest;rotatable=0;whiteSpace=wrap;html=1;fontFamily=Sen;fontSource=https%3A%2F%2Ffonts.googleapis.com%2Fcss%3Ffamily%3DSen;" vertex="1" parent="JBOzCxyKF4kcGiybDYba-11">
          <mxGeometry y="70" width="120" height="30" as="geometry" />
        </mxCell>
        <mxCell id="HnAsZbLMKMywxmPnx5cG-5" value="&lt;font style=&quot;&quot;&gt;&lt;font style=&quot;font-size: 16px;&quot;&gt;Stage_Enum&lt;/font&gt;&lt;br&gt;&lt;/font&gt;" style="swimlane;fontStyle=1;childLayout=stackLayout;horizontal=1;startSize=40;horizontalStack=0;resizeParent=1;resizeParentMax=0;resizeLast=0;collapsible=1;marginBottom=0;whiteSpace=wrap;html=1;fontFamily=Sen;fontSource=https%3A%2F%2Ffonts.googleapis.com%2Fcss%3Ffamily%3DSen;fontSize=16;strokeWidth=2;fillColor=#f5f5f5;fontColor=#333333;strokeColor=#666666;" vertex="1" parent="1">
          <mxGeometry x="90" y="320" width="140" height="160" as="geometry" />
        </mxCell>
        <mxCell id="HnAsZbLMKMywxmPnx5cG-6" value="Not Started&lt;span style=&quot;white-space: pre;&quot;&gt; &lt;/span&gt;" style="text;strokeColor=none;fillColor=none;align=left;verticalAlign=middle;spacingLeft=4;spacingRight=4;overflow=hidden;points=[[0,0.5],[1,0.5]];portConstraint=eastwest;rotatable=0;whiteSpace=wrap;html=1;fontFamily=Sen;fontSource=https%3A%2F%2Ffonts.googleapis.com%2Fcss%3Ffamily%3DSen;" vertex="1" parent="HnAsZbLMKMywxmPnx5cG-5">
          <mxGeometry y="40" width="140" height="30" as="geometry" />
        </mxCell>
        <mxCell id="HnAsZbLMKMywxmPnx5cG-11" value="Initialized" style="text;strokeColor=none;fillColor=none;align=left;verticalAlign=middle;spacingLeft=4;spacingRight=4;overflow=hidden;points=[[0,0.5],[1,0.5]];portConstraint=eastwest;rotatable=0;whiteSpace=wrap;html=1;fontFamily=Sen;fontSource=https%3A%2F%2Ffonts.googleapis.com%2Fcss%3Ffamily%3DSen;" vertex="1" parent="HnAsZbLMKMywxmPnx5cG-5">
          <mxGeometry y="70" width="140" height="30" as="geometry" />
        </mxCell>
        <mxCell id="HnAsZbLMKMywxmPnx5cG-7" value="In Progress" style="text;strokeColor=none;fillColor=none;align=left;verticalAlign=middle;spacingLeft=4;spacingRight=4;overflow=hidden;points=[[0,0.5],[1,0.5]];portConstraint=eastwest;rotatable=0;whiteSpace=wrap;html=1;fontFamily=Sen;fontSource=https%3A%2F%2Ffonts.googleapis.com%2Fcss%3Ffamily%3DSen;" vertex="1" parent="HnAsZbLMKMywxmPnx5cG-5">
          <mxGeometry y="100" width="140" height="30" as="geometry" />
        </mxCell>
        <mxCell id="HnAsZbLMKMywxmPnx5cG-8" value="Complete" style="text;strokeColor=none;fillColor=none;align=left;verticalAlign=middle;spacingLeft=4;spacingRight=4;overflow=hidden;points=[[0,0.5],[1,0.5]];portConstraint=eastwest;rotatable=0;whiteSpace=wrap;html=1;fontFamily=Sen;fontSource=https%3A%2F%2Ffonts.googleapis.com%2Fcss%3Ffamily%3DSen;" vertex="1" parent="HnAsZbLMKMywxmPnx5cG-5">
          <mxGeometry y="130" width="140" height="30" as="geometry" />
        </mxCell>
        <mxCell id="f2xGlYsWyJnSL1-jIEG4-2" value="" style="group;strokeWidth=2;imageWidth=22;imageHeight=22;" connectable="0" vertex="1" parent="1">
          <mxGeometry x="-1020" y="60" width="180" height="90" as="geometry" />
        </mxCell>
        <mxCell id="NCcOp1txf7NKBa47dfzq-38" value="" style="rounded=0;whiteSpace=wrap;html=1;fillColor=#6C8EBF;strokeColor=none;" vertex="1" parent="f2xGlYsWyJnSL1-jIEG4-2">
          <mxGeometry y="30" width="40" height="30" as="geometry" />
        </mxCell>
        <mxCell id="f2xGlYsWyJnSL1-jIEG4-1" value="" style="rounded=0;whiteSpace=wrap;html=1;fillColor=#e1d5e7;strokeColor=none;" vertex="1" parent="f2xGlYsWyJnSL1-jIEG4-2">
          <mxGeometry y="60" width="40" height="30" as="geometry" />
        </mxCell>
        <mxCell id="NCcOp1txf7NKBa47dfzq-28" value="Legend" style="shape=table;startSize=30;container=1;collapsible=0;childLayout=tableLayout;fixedRows=1;rowLines=0;fontStyle=1;fontSize=16;fontFamily=Sen;fontSource=https%3A%2F%2Ffonts.googleapis.com%2Fcss%3Ffamily%3DSen;strokeWidth=2;" vertex="1" parent="f2xGlYsWyJnSL1-jIEG4-2">
          <mxGeometry width="180" height="90" as="geometry" />
        </mxCell>
        <mxCell id="NCcOp1txf7NKBa47dfzq-29" value="" style="shape=tableRow;horizontal=0;startSize=0;swimlaneHead=0;swimlaneBody=0;top=0;left=0;bottom=0;right=0;collapsible=0;dropTarget=0;fillColor=none;points=[[0,0.5],[1,0.5]];portConstraint=eastwest;strokeColor=inherit;fontSize=16;" vertex="1" parent="NCcOp1txf7NKBa47dfzq-28">
          <mxGeometry y="30" width="180" height="30" as="geometry" />
        </mxCell>
        <mxCell id="NCcOp1txf7NKBa47dfzq-30" value="" style="shape=partialRectangle;html=1;whiteSpace=wrap;connectable=0;fillColor=none;top=0;left=0;bottom=0;right=0;overflow=hidden;pointerEvents=1;strokeColor=inherit;fontSize=16;" vertex="1" parent="NCcOp1txf7NKBa47dfzq-29">
          <mxGeometry width="40" height="30" as="geometry">
            <mxRectangle width="40" height="30" as="alternateBounds" />
          </mxGeometry>
        </mxCell>
        <mxCell id="NCcOp1txf7NKBa47dfzq-31" value="&lt;font data-font-src=&quot;https://fonts.googleapis.com/css?family=Sen&quot; face=&quot;Sen&quot;&gt;Telemetry&lt;/font&gt;" style="shape=partialRectangle;html=1;whiteSpace=wrap;connectable=0;fillColor=none;top=0;left=0;bottom=0;right=0;align=left;spacingLeft=6;overflow=hidden;strokeColor=inherit;fontSize=16;" vertex="1" parent="NCcOp1txf7NKBa47dfzq-29">
          <mxGeometry x="40" width="140" height="30" as="geometry">
            <mxRectangle width="140" height="30" as="alternateBounds" />
          </mxGeometry>
        </mxCell>
        <mxCell id="NCcOp1txf7NKBa47dfzq-32" value="" style="shape=tableRow;horizontal=0;startSize=0;swimlaneHead=0;swimlaneBody=0;top=0;left=0;bottom=0;right=0;collapsible=0;dropTarget=0;fillColor=none;points=[[0,0.5],[1,0.5]];portConstraint=eastwest;strokeColor=inherit;fontSize=16;" vertex="1" parent="NCcOp1txf7NKBa47dfzq-28">
          <mxGeometry y="60" width="180" height="30" as="geometry" />
        </mxCell>
        <mxCell id="NCcOp1txf7NKBa47dfzq-33" value="" style="shape=partialRectangle;html=1;whiteSpace=wrap;connectable=0;fillColor=none;top=0;left=0;bottom=0;right=0;overflow=hidden;strokeColor=inherit;fontSize=16;" vertex="1" parent="NCcOp1txf7NKBa47dfzq-32">
          <mxGeometry width="40" height="30" as="geometry">
            <mxRectangle width="40" height="30" as="alternateBounds" />
          </mxGeometry>
        </mxCell>
        <mxCell id="NCcOp1txf7NKBa47dfzq-34" value="&lt;font face=&quot;Sen&quot;&gt;Commands&lt;/font&gt;" style="shape=partialRectangle;html=1;whiteSpace=wrap;connectable=0;fillColor=none;top=0;left=0;bottom=0;right=0;align=left;spacingLeft=6;overflow=hidden;strokeColor=inherit;fontSize=16;" vertex="1" parent="NCcOp1txf7NKBa47dfzq-32">
          <mxGeometry x="40" width="140" height="30" as="geometry">
            <mxRectangle width="140" height="30" as="alternateBounds" />
          </mxGeometry>
        </mxCell>
        <mxCell id="YJ6jWMHQu3_akrPUAfsv-1" value="&lt;font style=&quot;&quot;&gt;MissionInfo&lt;br&gt;&lt;span style=&quot;font-size: 12px; font-weight: normal;&quot;&gt;key: &quot;missionName&quot;&lt;/span&gt;&lt;/font&gt;" style="swimlane;fontStyle=1;childLayout=stackLayout;horizontal=1;startSize=60;horizontalStack=0;resizeParent=1;resizeParentMax=0;resizeLast=0;collapsible=1;marginBottom=0;whiteSpace=wrap;html=1;fontFamily=Sen;fontSource=https%3A%2F%2Ffonts.googleapis.com%2Fcss%3Ffamily%3DSen;fontSize=16;strokeWidth=2;fillColor=#e1d5e7;strokeColor=#9673a6;" vertex="1" parent="1">
          <mxGeometry x="-200" y="60" width="180" height="120" as="geometry" />
        </mxCell>
        <mxCell id="HnAsZbLMKMywxmPnx5cG-2" value="+ currentStageId: string" style="text;strokeColor=none;fillColor=none;align=left;verticalAlign=middle;spacingLeft=4;spacingRight=4;overflow=hidden;points=[[0,0.5],[1,0.5]];portConstraint=eastwest;rotatable=0;whiteSpace=wrap;html=1;fontFamily=Sen;fontSource=https%3A%2F%2Ffonts.googleapis.com%2Fcss%3Ffamily%3DSen;" vertex="1" parent="YJ6jWMHQu3_akrPUAfsv-1">
          <mxGeometry y="60" width="180" height="30" as="geometry" />
        </mxCell>
        <mxCell id="o4jwhLANQ3BsJ6v3ssTc-1" value="+ stages: MissionStage[]" style="text;strokeColor=none;fillColor=none;align=left;verticalAlign=middle;spacingLeft=4;spacingRight=4;overflow=hidden;points=[[0,0.5],[1,0.5]];portConstraint=eastwest;rotatable=0;whiteSpace=wrap;html=1;fontFamily=Sen;fontSource=https%3A%2F%2Ffonts.googleapis.com%2Fcss%3Ffamily%3DSen;" vertex="1" parent="YJ6jWMHQu3_akrPUAfsv-1">
          <mxGeometry y="90" width="180" height="30" as="geometry" />
        </mxCell>
        <mxCell id="YJ6jWMHQu3_akrPUAfsv-17" value="&lt;font style=&quot;&quot;&gt;MissionStage&lt;br&gt;&lt;/font&gt;" style="swimlane;fontStyle=1;childLayout=stackLayout;horizontal=1;startSize=60;horizontalStack=0;resizeParent=1;resizeParentMax=0;resizeLast=0;collapsible=1;marginBottom=0;whiteSpace=wrap;html=1;fontFamily=Sen;fontSource=https%3A%2F%2Ffonts.googleapis.com%2Fcss%3Ffamily%3DSen;fontSize=16;strokeWidth=2;fillColor=#e1d5e7;strokeColor=#9673a6;" vertex="1" parent="1">
          <mxGeometry x="-210" y="235" width="200" height="150" as="geometry" />
        </mxCell>
        <mxCell id="YJ6jWMHQu3_akrPUAfsv-19" value="+ stageName: string" style="text;strokeColor=none;fillColor=none;align=left;verticalAlign=middle;spacingLeft=4;spacingRight=4;overflow=hidden;points=[[0,0.5],[1,0.5]];portConstraint=eastwest;rotatable=0;whiteSpace=wrap;html=1;fontFamily=Sen;fontSource=https%3A%2F%2Ffonts.googleapis.com%2Fcss%3Ffamily%3DSen;" vertex="1" parent="YJ6jWMHQu3_akrPUAfsv-17">
          <mxGeometry y="60" width="200" height="30" as="geometry" />
        </mxCell>
        <mxCell id="YJ6jWMHQu3_akrPUAfsv-20" value="+ stageStatus: Stage_Enum" style="text;strokeColor=none;fillColor=none;align=left;verticalAlign=middle;spacingLeft=4;spacingRight=4;overflow=hidden;points=[[0,0.5],[1,0.5]];portConstraint=eastwest;rotatable=0;whiteSpace=wrap;html=1;fontFamily=Sen;fontSource=https%3A%2F%2Ffonts.googleapis.com%2Fcss%3Ffamily%3DSen;" vertex="1" parent="YJ6jWMHQu3_akrPUAfsv-17">
          <mxGeometry y="90" width="200" height="30" as="geometry" />
        </mxCell>
        <mxCell id="YJ6jWMHQu3_akrPUAfsv-21" value="+ vehicleKeys: VehicleGeoData[]" style="text;strokeColor=none;fillColor=none;align=left;verticalAlign=middle;spacingLeft=4;spacingRight=4;overflow=hidden;points=[[0,0.5],[1,0.5]];portConstraint=eastwest;rotatable=0;whiteSpace=wrap;html=1;fontFamily=Sen;fontSource=https%3A%2F%2Ffonts.googleapis.com%2Fcss%3Ffamily%3DSen;" vertex="1" parent="YJ6jWMHQu3_akrPUAfsv-17">
          <mxGeometry y="120" width="200" height="30" as="geometry" />
        </mxCell>
        <mxCell id="o4jwhLANQ3BsJ6v3ssTc-4" value="&lt;font style=&quot;&quot;&gt;&lt;font style=&quot;font-size: 16px;&quot;&gt;Status_Enum&lt;/font&gt;&lt;br&gt;&lt;/font&gt;" style="swimlane;fontStyle=1;childLayout=stackLayout;horizontal=1;startSize=40;horizontalStack=0;resizeParent=1;resizeParentMax=0;resizeLast=0;collapsible=1;marginBottom=0;whiteSpace=wrap;html=1;fontFamily=Sen;fontSource=https%3A%2F%2Ffonts.googleapis.com%2Fcss%3Ffamily%3DSen;fontSize=16;strokeWidth=2;fillColor=#f5f5f5;fontColor=#333333;strokeColor=#666666;" vertex="1" parent="1">
          <mxGeometry x="-655" y="620" width="140" height="130" as="geometry" />
        </mxCell>
        <mxCell id="o4jwhLANQ3BsJ6v3ssTc-5" value="In Use" style="text;strokeColor=none;fillColor=none;align=left;verticalAlign=middle;spacingLeft=4;spacingRight=4;overflow=hidden;points=[[0,0.5],[1,0.5]];portConstraint=eastwest;rotatable=0;whiteSpace=wrap;html=1;fontFamily=Sen;fontSource=https%3A%2F%2Ffonts.googleapis.com%2Fcss%3Ffamily%3DSen;" vertex="1" parent="o4jwhLANQ3BsJ6v3ssTc-4">
          <mxGeometry y="40" width="140" height="30" as="geometry" />
        </mxCell>
        <mxCell id="o4jwhLANQ3BsJ6v3ssTc-6" value="Standby" style="text;strokeColor=none;fillColor=none;align=left;verticalAlign=middle;spacingLeft=4;spacingRight=4;overflow=hidden;points=[[0,0.5],[1,0.5]];portConstraint=eastwest;rotatable=0;whiteSpace=wrap;html=1;fontFamily=Sen;fontSource=https%3A%2F%2Ffonts.googleapis.com%2Fcss%3Ffamily%3DSen;" vertex="1" parent="o4jwhLANQ3BsJ6v3ssTc-4">
          <mxGeometry y="70" width="140" height="30" as="geometry" />
        </mxCell>
        <mxCell id="o4jwhLANQ3BsJ6v3ssTc-7" value="Emergency Stopped" style="text;strokeColor=none;fillColor=none;align=left;verticalAlign=middle;spacingLeft=4;spacingRight=4;overflow=hidden;points=[[0,0.5],[1,0.5]];portConstraint=eastwest;rotatable=0;whiteSpace=wrap;html=1;fontFamily=Sen;fontSource=https%3A%2F%2Ffonts.googleapis.com%2Fcss%3Ffamily%3DSen;" vertex="1" parent="o4jwhLANQ3BsJ6v3ssTc-4">
          <mxGeometry y="100" width="140" height="30" as="geometry" />
        </mxCell>
        <mxCell id="o4jwhLANQ3BsJ6v3ssTc-10" style="edgeStyle=orthogonalEdgeStyle;rounded=0;orthogonalLoop=1;jettySize=auto;html=1;entryX=-0.003;entryY=0.115;entryDx=0;entryDy=0;entryPerimeter=0;strokeWidth=2;" edge="1" parent="1" source="o4jwhLANQ3BsJ6v3ssTc-2" target="o4jwhLANQ3BsJ6v3ssTc-4">
          <mxGeometry relative="1" as="geometry" />
        </mxCell>
        <mxCell id="tJRRS9a5sce-Qi3CrdKS-1" value="" style="edgeStyle=orthogonalEdgeStyle;rounded=0;orthogonalLoop=1;jettySize=auto;html=1;strokeWidth=2;fillColor=#e1d5e7;strokeColor=#9673a6;exitX=0;exitY=0.75;exitDx=0;exitDy=0;entryX=-0.005;entryY=0.145;entryDx=0;entryDy=0;entryPerimeter=0;" edge="1" parent="1" source="7jIuEses9-9phUZ3NibQ-2" target="7jIuEses9-9phUZ3NibQ-4">
          <mxGeometry relative="1" as="geometry">
            <mxPoint x="-660" y="450" as="targetPoint" />
            <Array as="points">
              <mxPoint x="-780" y="338" />
              <mxPoint x="-780" y="476" />
            </Array>
            <mxPoint x="-750" y="500" as="sourcePoint" />
          </mxGeometry>
        </mxCell>
        <mxCell id="tJRRS9a5sce-Qi3CrdKS-5" style="edgeStyle=orthogonalEdgeStyle;rounded=0;orthogonalLoop=1;jettySize=auto;html=1;entryX=0;entryY=0.25;entryDx=0;entryDy=0;strokeWidth=2;fillColor=#e1d5e7;strokeColor=#9673a6;" edge="1" parent="1" source="o4jwhLANQ3BsJ6v3ssTc-1" target="YJ6jWMHQu3_akrPUAfsv-17">
          <mxGeometry relative="1" as="geometry">
            <Array as="points">
              <mxPoint x="-250" y="165" />
              <mxPoint x="-250" y="273" />
            </Array>
          </mxGeometry>
        </mxCell>
        <mxCell id="tJRRS9a5sce-Qi3CrdKS-6" style="edgeStyle=orthogonalEdgeStyle;rounded=0;orthogonalLoop=1;jettySize=auto;html=1;entryX=0;entryY=0.25;entryDx=0;entryDy=0;strokeWidth=2;fillColor=#e1d5e7;strokeColor=#9673a6;" edge="1" parent="1" source="YJ6jWMHQu3_akrPUAfsv-21" target="JBOzCxyKF4kcGiybDYba-21">
          <mxGeometry relative="1" as="geometry">
            <Array as="points">
              <mxPoint x="-250" y="370" />
              <mxPoint x="-250" y="650" />
            </Array>
          </mxGeometry>
        </mxCell>
        <mxCell id="tJRRS9a5sce-Qi3CrdKS-8" style="edgeStyle=orthogonalEdgeStyle;rounded=0;orthogonalLoop=1;jettySize=auto;html=1;entryX=-0.008;entryY=0.124;entryDx=0;entryDy=0;entryPerimeter=0;strokeWidth=2;" edge="1" parent="1" source="YJ6jWMHQu3_akrPUAfsv-20" target="HnAsZbLMKMywxmPnx5cG-5">
          <mxGeometry relative="1" as="geometry">
            <mxPoint x="80" y="300" as="targetPoint" />
            <Array as="points" />
          </mxGeometry>
        </mxCell>
      </root>
    </mxGraphModel>
  </diagram>
</mxfile>
